<?xml version="1.0" encoding="UTF-8" standalone="no"?>
<svg
   id="Capa_1"
   data-name="Capa 1"
   viewBox="0 0 1239.4393 198.31869"
   version="1.1"
   sodipodi:docname="logo_long.svg"
   inkscape:version="1.3 (0e150ed6c4, 2023-07-21)"
   width="1239.4393"
   height="198.3187"
   xmlns:inkscape="http://www.inkscape.org/namespaces/inkscape"
   xmlns:sodipodi="http://sodipodi.sourceforge.net/DTD/sodipodi-0.dtd"
   xmlns="http://www.w3.org/2000/svg"
   xmlns:svg="http://www.w3.org/2000/svg">
  <sodipodi:namedview
     id="namedview5"
     pagecolor="#ffffff"
     bordercolor="#000000"
     borderopacity="0.25"
     inkscape:showpageshadow="2"
     inkscape:pageopacity="0.0"
     inkscape:pagecheckerboard="0"
     inkscape:deskcolor="#d1d1d1"
     inkscape:zoom="0.45916088"
     inkscape:cx="360.44011"
     inkscape:cy="120.87267"
     inkscape:window-width="1366"
     inkscape:window-height="705"
     inkscape:window-x="-8"
     inkscape:window-y="-8"
     inkscape:window-maximized="1"
     inkscape:current-layer="Capa_1" />
  <defs
     id="defs1">
    <style
       id="style1">&#10;      .cls-1 {&#10;        font-size: 184.86px;&#10;      }&#10;&#10;      .cls-1, .cls-2 {&#10;        fill: #a8a8a8;&#10;      }&#10;&#10;      .cls-1, .cls-3 {&#10;        font-family: DejaVuSansCondensed-Bold, 'DejaVu Sans';&#10;        font-weight: 700;&#10;      }&#10;&#10;      .cls-4 {&#10;        fill: #e77818;&#10;      }&#10;&#10;      .cls-4, .cls-5, .cls-2 {&#10;        stroke-width: 0px;&#10;      }&#10;&#10;      .cls-5 {&#10;        fill: #64225f;&#10;      }&#10;&#10;      .cls-3 {&#10;        fill: #333233;&#10;        font-size: 113.46px;&#10;      }&#10;    </style>
  </defs>
  <polygon
     class="cls-4"
     points="6.13,150.13 286.47,433.53 286.47,150.13 "
     id="polygon1"
     transform="scale(0.45745091)"
     style="fill:#f9f9f9" />
  <polygon
     class="cls-5"
     points="387.57,387.57 308.43,308.43 308.43,433.53 433.53,433.53 433.53,0 0,0 0,127.15 127.15,127.15 45.96,45.96 387.57,45.96 "
     id="polygon2"
     transform="scale(0.45745091)"
     style="fill:#f9f9f9" />
  <polygon
     class="cls-2"
     points="367.15,67.4 93.96,67.4 156.26,129.7 307.5,129.7 307.5,280.94 367.15,340.6 "
     id="polygon3"
     transform="scale(0.45745091)"
     style="fill:#f9f9f9" />
  <path
     d="M 683.57279,161.46706 H 660.9576 l -5.86741,-17.67685 H 623.6454 l -5.86741,17.67685 h -22.04555 l 31.33087,-87.44455 h 25.17863 z M 649.79242,127.75774 639.36779,96.3975 628.94317,127.75774 Z m 111.59486,-0.17618 q 0,15.56265 -8.37389,25.37006 -8.31693,9.80742 -20.79229,9.80742 -5.35473,0 -9.39926,-1.17453 -4.04453,-1.17455 -7.69031,-3.40617 l -0.85447,3.28872 H 694.62405 V 70.08779 h 20.50748 v 32.29987 q 4.72811,-3.87598 9.62713,-6.28379 4.95596,-2.4078 11.39303,-2.4078 12.13359,0 18.68458,9.04396 6.55101,8.98524 6.55101,24.84153 z m -21.1341,0.41108 q 0,-8.80904 -2.90522,-13.56593 -2.90523,-4.7569 -10.36767,-4.7569 -2.90523,0 -5.98135,0.93963 -3.07612,0.88091 -5.86741,2.58399 v 33.12204 q 2.22165,0.82218 4.21543,1.11583 1.99377,0.29363 4.78508,0.29363 8.14602,0 12.13359,-4.93308 3.98755,-4.93307 3.98755,-14.79921 z m 98.94857,4.40454 h -46.93932 q 0.45572,7.75196 5.69651,11.86285 5.29777,4.1109 15.5515,4.1109 6.49405,0 12.58933,-2.40781 6.09527,-2.40781 9.62711,-5.16798 h 2.27861 v 16.9721 q -6.94976,2.87764 -13.102,4.16962 -6.15224,1.292 -13.61468,1.292 -19.25424,0 -29.50797,-8.92651 -10.25375,-8.92651 -10.25375,-25.4288 0,-16.3261 9.68409,-25.83989 9.74105,-9.5725 26.65972,-9.5725 15.60846,0 23.46965,8.16305 7.8612,8.10433 7.8612,23.37337 z m -20.39354,-12.3914 q -0.1709,-6.63615 -3.19004,-9.98359 -3.01916,-3.34746 -9.39927,-3.34746 -5.92439,0 -9.74105,3.17126 -3.81666,3.17126 -4.2724,10.15979 z m 81.2324,-4.34581 h -1.8229 q -1.3102,-0.46981 -4.21543,-0.70473 -2.90522,-0.2349 -4.84204,-0.2349 -4.38632,0 -7.74725,0.58727 -3.36097,0.58728 -7.23459,1.99671 v 44.16274 H 853.67092 V 95.5166 h 20.50748 v 9.68997 q 6.77885,-5.99018 11.7918,-7.92816 5.01294,-1.99671 9.22835,-1.99671 1.08234,0 2.44952,0.0587 1.36717,0.0587 2.39254,0.17617 z m 52.52191,45.21981 q -3.30398,0.8809 -7.0067,1.35071 -3.70276,0.52855 -9.05748,0.52855 -11.9627,0 -17.83011,-4.9918 -5.81047,-4.99179 -5.81047,-17.08957 v -30.83168 h -8.43083 V 95.5166 h 8.43083 V 76.66522 h 20.50748 V 95.5166 h 19.19728 v 14.32939 h -19.19728 v 23.37335 q 0,3.46491 0.0569,6.0489 0.0569,2.58398 0.91145,4.63942 0.79753,2.05546 2.79129,3.28872 2.05075,1.17455 5.92439,1.17455 1.59503,0 4.15846,-0.70473 2.6204,-0.70473 3.64577,-1.292 h 1.70896 z m 75.99158,0.58728 h -20.5075 v -7.28216 q -5.6965,4.46325 -10.42459,6.81233 -4.7281,2.29036 -11.2791,2.29036 -10.5955,0 -16.349,-6.2838 -5.69655,-6.28378 -5.69655,-18.55773 V 95.5166 h 20.62145 v 32.71095 q 0,4.99179 0.2848,8.33925 0.3418,3.2887 1.4811,5.4616 1.0823,2.17291 3.247,3.17126 2.2216,0.99836 6.1522,0.99836 2.6204,0 5.81049,-0.99836 3.19,-0.99835 6.1522,-2.93636 V 95.5166 h 20.5075 z m 65.7378,-45.80709 h -1.8228 q -1.3102,-0.46981 -4.2155,-0.70473 -2.9052,-0.2349 -4.842,-0.2349 -4.3863,0 -7.7473,0.58727 -3.3609,0.58728 -7.2346,1.99671 v 44.16274 h -20.5074 V 95.5166 h 20.5074 v 9.68997 q 6.7789,-5.99018 11.7918,-7.92816 5.013,-1.99671 9.2284,-1.99671 1.0824,0 2.4495,0.0587 1.3672,0.0587 2.3925,0.17617 z m 50.3573,28.60006 V 130.5179 q -4.1584,0.35238 -9.0005,0.99836 -4.842,0.58727 -7.3485,1.40945 -3.0761,0.99836 -4.7281,2.93636 -1.595,1.87926 -1.595,4.9918 0,2.05544 0.3418,3.34744 0.3417,1.29198 1.7089,2.46653 1.3102,1.17454 3.1331,1.76181 1.8229,0.52853 5.6965,0.52853 3.0761,0 6.2092,-1.29198 3.1901,-1.292 5.5826,-3.40617 z m 0,10.2185 q -1.652,1.292 -4.1015,3.11254 -2.4495,1.82053 -4.6142,2.87761 -3.0191,1.40946 -6.2661,2.05546 -3.247,0.70472 -7.1207,0.70472 -9.1144,0 -15.2667,-5.81397 -6.1522,-5.81398 -6.1522,-14.85794 0,-7.22343 3.1331,-11.80413 3.1331,-4.58071 8.8866,-7.22342 5.6965,-2.64272 14.1273,-3.75854 8.4309,-1.11581 17.4883,-1.64436 v -0.35235 q 0,-5.46162 -4.3293,-7.51706 -4.3294,-2.11418 -12.7602,-2.11418 -5.0699,0 -10.8234,1.87928 -5.7535,1.82053 -8.26,2.81889 h -1.8798 V 96.92605 q 3.247,-0.8809 10.5386,-2.05545 7.3485,-1.23326 14.697,-1.23326 17.4883,0 25.2356,5.57905 7.8042,5.52035 7.8042,17.38321 v 44.86746 h -20.3366 z m 94.7901,-13.91831 q 0,10.21852 -8.8866,16.5023 -8.8865,6.22507 -24.3241,6.22507 -8.5448,0 -15.4945,-1.64436 -6.9498,-1.64435 -11.1652,-3.64108 v -17.3832 h 1.8798 q 1.5381,1.11582 3.5319,2.46653 2.0507,1.29201 5.7535,2.81891 3.19,1.35071 7.2345,2.34908 4.0446,0.93963 8.6588,0.93963 6.0383,0 8.9435,-1.35072 2.9052,-1.40946 2.9052,-4.1109 0,-2.40781 -1.7089,-3.46489 -1.709,-1.1158 -6.4941,-2.11418 -2.2786,-0.52853 -6.2092,-1.1158 -3.8736,-0.64601 -7.0637,-1.52691 -8.7156,-2.34908 -12.9311,-7.28215 -4.2154,-4.9918 -4.2154,-12.39139 0,-9.51379 8.7157,-15.79758 8.7726,-6.34251 23.9254,-6.34251 7.1776,0 13.7286,1.5269 6.6079,1.46816 10.3107,3.17124 v 16.6785 h -1.7659 q -4.5572,-3.22999 -10.4247,-5.22672 -5.8104,-2.05544 -11.7918,-2.05544 -4.9559,0 -8.3739,1.40946 -3.3609,1.40943 -3.3609,3.99342 0,2.34908 1.5381,3.58236 1.538,1.23326 7.2346,2.46654 3.133,0.64598 6.7218,1.29198 3.6458,0.58728 7.2916,1.52691 8.0891,2.1729 11.9627,6.87105 3.8736,4.63944 3.8736,11.62795 z"
     id="text3"
     class="cls-3"
     style="font-weight:700;font-size:113.46px;font-family:DejaVuSansCondensed-Bold, 'DejaVu Sans';fill:#f9f9f9;stroke-width:1.04403"
     aria-label="Aberturas" />
  <path
     d="m 445.00462,117.32943 h -25.05066 l -7.31521,-6.63106 q -5.26274,4.15757 -11.63066,6.21004 -6.3153,2.05247 -13.36737,2.05247 -14.52518,0 -22.84031,-6.68368 -8.26251,-6.73632 -8.26251,-17.52494 0,-4.47334 1.31569,-7.78886 1.31568,-3.31553 3.47341,-5.94691 2.05247,-2.57874 4.73647,-4.4207 2.684,-1.84196 5.10486,-3.15765 -2.21035,-1.63145 -4.2102,-3.42078 -1.99984,-1.78933 -3.47341,-3.89443 -1.42094,-1.99984 -2.21035,-4.47333 -0.78941,-2.47349 -0.78941,-5.57851 0,-3.68392 1.57882,-6.8942 1.57883,-3.26289 4.73647,-5.84164 3.2629,-2.684 8.73616,-4.31545 5.52588,-1.68408 13.10423,-1.68408 6.36792,0 11.36752,1.26306 4.99961,1.26306 8.42039,3.57867 3.21028,2.21035 4.89436,5.36799 1.7367,3.10503 1.7367,6.73632 0,2.42086 -0.73678,5.31537 -0.68416,2.89451 -2.57875,5.47325 -2.05247,2.73663 -5.42062,5.10486 -3.36816,2.36824 -9.2098,4.2102 l 16.10399,14.15678 V 71.59618 h 19.63004 v 5.84165 q 0,6.21004 -2.1051,11.8938 -2.1051,5.68376 -5.78902,9.42031 l 20.05105,17.52494 z M 395.42958,56.59736 q 0,-2.73662 -0.84204,-4.31545 -0.84204,-1.63144 -2.05247,-2.47348 -1.26306,-0.84204 -2.63137,-1.05255 -1.36832,-0.21051 -2.21036,-0.21051 -0.89466,0 -2.05247,0.21051 -1.10517,0.21051 -2.47349,1.10517 -1.10517,0.73678 -1.94721,2.21036 -0.84204,1.42094 -0.84204,3.78917 0,3.10502 2.52612,5.99953 2.52611,2.89451 6.57843,5.9469 2.94713,-2.31561 4.4207,-5.10486 1.5262,-2.84188 1.5262,-6.10479 z m 7.94674,45.20698 -22.47192,-19.94581 q -1.05254,1.05255 -2.42086,3.78918 -1.36831,2.684 -1.36831,5.99953 0,3.52604 1.36831,6.10478 1.36832,2.52612 3.36816,4.15757 2.1051,1.68408 4.68384,2.52612 2.57874,0.84204 5.05223,0.84204 3.57867,0 6.3153,-0.68416 2.78925,-0.73678 5.47325,-2.78925 z"
     id="text4"
     class="cls-1"
     style="font-weight:700;font-size:184.86px;font-family:DejaVuSansCondensed-Bold, 'DejaVu Sans';fill:#f9f9f9;stroke-width:0.583041"
     aria-label="&amp;" />
  <path
     class="cls-5"
     d="m 276.5552,116.75805 c -25.62466,-12.98433 -39.3786,-25.30982 -42.62614,-44.99329 -1.28269,-7.7836 -1.11361,-19.71262 6.97901,-32.33546 8.65816,-13.50324 26.47007,-23.93384 38.70227,-26.23103 11.39845,-2.13976 26.66247,-0.90371 46.66078,3.77811 12.42461,2.90938 25.04162,6.8624 28.62149,8.41911 l -18.54653,42.66113 c 0.15159,0.0641 0.37314,0.16325 0.68215,0.27986 -9.73678,-3.63818 -35.15738,-11.311 -45.05159,-9.69015 -3.94136,0.0117 -4.10461,7.56788 -1.30018,11.03114 2.49542,2.29135 -1.5917,0.82209 11.46842,7.96434 37.54785,20.54054 45.40725,30.79041 47.74524,34.9475 7.94685,14.12125 12.73362,37.36127 -9.76594,61.40006 -8.15674,8.71064 -24.81423,18.22587 -50.38059,18.22587 -1.30601,0 -2.64117,-0.0233 -4.00549,-0.0816 -17.85272,-0.71131 -38.35245,-6.27935 -59.27779,-16.10942 l 19.77675,-42.10141 c 33.11091,15.55554 47.7744,14.29617 52.71275,9.01965 2.23305,-2.38464 2.07563,-5.5972 0.37315,-8.95551 -3.68482,-7.28802 -5.34649,-6.37847 -9.44527,-9.53273 m -1.2477,-65.63878 z"
     id="path4"
     style="fill:#f9f9f9" />
  <path
     class="cls-4"
     d="m 477.10387,115.4637 c -25.62466,-12.98433 -39.3786,-25.30982 -42.62614,-44.99329 -1.28269,-7.7836 -1.1136,-19.71262 6.97901,-32.33547 8.65816,-13.50323 26.47007,-23.93384 38.70227,-26.23102 11.39845,-2.13976 26.66247,-0.90371 46.66078,3.77811 12.42461,2.90937 25.04162,6.86239 28.6215,8.41911 l -18.54654,42.66113 c 0.15159,0.0641 0.37314,0.16325 0.68215,0.27986 -9.73678,-3.63818 -35.15738,-11.311 -45.05159,-9.69015 -3.94136,0.0117 -4.10461,7.56788 -1.30018,11.03114 2.49542,2.29135 -1.5917,0.82209 11.46842,7.96434 37.54785,20.54054 45.40725,30.79041 47.74524,34.94749 7.94685,14.12126 12.73362,37.36128 -9.76594,61.40007 -8.15674,8.71064 -24.81423,18.22587 -50.38058,18.22587 -1.30602,0 -2.64118,-0.0233 -4.0055,-0.0816 -17.85272,-0.71131 -38.35245,-6.27935 -59.27779,-16.10943 l 19.77675,-42.1014 c 33.11091,15.55554 47.7744,14.29617 52.71276,9.01965 2.23304,-2.38464 2.07562,-5.5972 0.37314,-8.95551 -3.68482,-7.28802 -5.34649,-6.37847 -9.44527,-9.53273 m -1.2477,-65.63295 z"
     id="path5"
     style="fill:#f9f9f9" />
</svg>
