<?xml version="1.0" encoding="UTF-8" standalone="no"?>
<svg
   id="Capa_1"
   data-name="Capa 1"
   viewBox="0 0 1030.14 474.85"
   version="1.1"
   sodipodi:docname="logo.svg"
   inkscape:version="1.3 (0e150ed6c4, 2023-07-21)"
   xmlns:inkscape="http://www.inkscape.org/namespaces/inkscape"
   xmlns:sodipodi="http://sodipodi.sourceforge.net/DTD/sodipodi-0.dtd"
   xmlns="http://www.w3.org/2000/svg"
   xmlns:svg="http://www.w3.org/2000/svg">
  <sodipodi:namedview
     id="namedview5"
     pagecolor="#ffffff"
     bordercolor="#000000"
     borderopacity="0.25"
     inkscape:showpageshadow="2"
     inkscape:pageopacity="0.0"
     inkscape:pagecheckerboard="0"
     inkscape:deskcolor="#d1d1d1"
     inkscape:zoom="0.45916088"
     inkscape:cx="684.9451"
     inkscape:cy="238.4785"
     inkscape:window-width="1366"
     inkscape:window-height="705"
     inkscape:window-x="-8"
     inkscape:window-y="-8"
     inkscape:window-maximized="1"
     inkscape:current-layer="Capa_1" />
  <defs
     id="defs1">
    <style
       id="style1">&#10;      .cls-1 {&#10;        font-size: 184.86px;&#10;      }&#10;&#10;      .cls-1, .cls-2 {&#10;        fill: #a8a8a8;&#10;      }&#10;&#10;      .cls-1, .cls-3 {&#10;        font-family: DejaVuSansCondensed-Bold, 'DejaVu Sans';&#10;        font-weight: 700;&#10;      }&#10;&#10;      .cls-4 {&#10;        fill: #e77818;&#10;      }&#10;&#10;      .cls-4, .cls-5, .cls-2 {&#10;        stroke-width: 0px;&#10;      }&#10;&#10;      .cls-5 {&#10;        fill: #64225f;&#10;      }&#10;&#10;      .cls-3 {&#10;        fill: #333233;&#10;        font-size: 113.46px;&#10;      }&#10;    </style>
  </defs>
  <polygon
     class="cls-4"
     points="286.47 433.53 286.47 150.13 6.13 150.13 286.47 433.53"
     id="polygon1" />
  <polygon
     class="cls-5"
     points="0 0 0 127.15 127.15 127.15 45.96 45.96 387.57 45.96 387.57 387.57 308.43 308.43 308.43 433.53 433.53 433.53 433.53 0 0 0"
     id="polygon2" />
  <polygon
     class="cls-2"
     points="93.96 67.4 156.26 129.7 307.5 129.7 307.5 280.94 367.15 340.6 367.15 67.4 93.96 67.4"
     id="polygon3" />
  <path
     d="M 86.757011,0 H 64.763056 l -5.70624,-16.675517 H 28.475801 L 22.76956,0 H 1.3296094 L 31.799824,-82.491181 H 56.286796 Z M 53.90458,-31.799824 43.766308,-61.383632 33.628037,-31.799824 Z m 108.52937,-0.166201 q 0,14.681103 -8.14386,23.9329684 -8.08846,9.2518652 -20.22114,9.2518652 -5.20764,0 -9.14107,-1.10800782 -3.93342,-1.1080078 -7.47905,-3.21322258 L 116.61783,0 H 97.50469 v -86.203007 h 19.94414 v 30.470214 q 4.59823,-3.656425 9.36267,-5.927841 4.81983,-2.271416 11.08007,-2.271416 11.80029,0 18.17133,8.53166 6.37105,8.47626 6.37105,23.434365 z m -20.55355,0.387803 q 0,-8.310059 -2.82542,-12.797491 -2.82542,-4.487431 -10.08287,-4.487431 -2.82542,0 -5.81704,0.886406 -2.99162,0.831006 -5.70624,2.437617 v 31.24582 q 2.16062,0.775606 4.09963,1.052608 1.93901,0.277002 4.65363,0.277002 7.92226,0 11.80029,-4.653633 3.87802,-4.653633 3.87802,-13.960898 z m 96.23048,4.155029 h -45.64992 q 0.4432,7.312851 5.54004,11.190879 5.15223,3.878027 15.1243,3.878027 6.31565,0 12.24349,-2.271416 5.92784,-2.271416 9.36267,-4.875234 h 2.21601 v 16.0107124 q -6.75885,2.71461914 -12.74209,3.93342772 -5.98324,1.21880858 -13.24069,1.21880858 -18.72533,0 -28.6974,-8.4208593 -9.97207,-8.4208594 -9.97207,-23.9883694 0,-15.401308 9.41806,-24.376171 9.47347,-9.030264 25.92739,-9.030264 15.1797,0 22.82496,7.700654 7.64525,7.645254 7.64525,22.049356 z m -19.83334,-11.689482 q -0.1662,-6.260245 -3.10242,-9.418067 -2.93622,-3.157822 -9.14107,-3.157822 -5.76164,0 -9.47346,2.991621 -3.71183,2.991621 -4.15503,9.584268 z m 79.00096,-4.099629 h -1.77282 q -1.27421,-0.443203 -4.09963,-0.664805 -2.82542,-0.221602 -4.70903,-0.221602 -4.26583,0 -7.53445,0.554004 -3.26863,0.554004 -7.03585,1.883614 V 0 h -19.94414 v -62.214638 h 19.94414 v 9.141064 q 6.59264,-5.65084 11.46788,-7.479052 4.87523,-1.883614 8.97486,-1.883614 1.05261,0 2.38222,0.0554 1.32961,0.0554 2.32682,0.166201 z m 51.07916,42.6583001 q -3.21323,0.83100585 -6.81425,1.27420897 -3.60103,0.49860353 -8.80866,0.49860353 -11.63409,0 -17.34033,-4.7090332 -5.65084,-4.7090331 -5.65084,-16.1215134 v -29.085205 h -8.19925 v -13.517695 h 8.19925 v -17.783525 h 19.94414 v 17.783525 h 18.66994 v 13.517695 h -18.66994 v 22.049355 q 0,3.268623 0.0554,5.706241 0.0554,2.437617 0.88641,4.37663 0.77561,1.939014 2.71462,3.102422 1.99441,1.108008 5.76164,1.108008 1.55121,0 4.04423,-0.664805 2.54842,-0.664804 3.54562,-1.218808 h 1.66202 z M 422.26178,0 h -19.94414 v -6.8696484 q -5.54004,4.2104297 -10.13827,6.42644528 -4.59823,2.16061522 -10.96928,2.16061522 -10.30447,0 -15.89991,-5.9278418 -5.54004,-5.9278413 -5.54004,-17.5065233 v -40.497685 h 20.05494 v 30.858017 q 0,4.709033 0.277,7.866856 0.33241,3.102421 1.44041,5.152236 1.05261,2.049814 3.15783,2.991621 2.16061,0.941807 5.98324,0.941807 2.54842,0 5.65084,-0.941807 3.10242,-0.941807 5.98324,-2.77002 v -44.09871 h 19.94414 z m 63.93204,-43.212304 h -1.77281 q -1.27421,-0.443203 -4.09963,-0.664805 -2.82542,-0.221602 -4.70903,-0.221602 -4.26583,0 -7.53445,0.554004 -3.26863,0.554004 -7.03585,1.883614 V 0 h -19.94414 v -62.214638 h 19.94414 v 9.141064 q 6.59264,-5.65084 11.46788,-7.479052 4.87523,-1.883614 8.97486,-1.883614 1.05261,0 2.38222,0.0554 1.32961,0.0554 2.32681,0.166201 z m 48.97397,26.97999 v -12.963692 q -4.04423,0.332403 -8.75327,0.941807 -4.70903,0.554004 -7.14665,1.329609 -2.99162,0.941807 -4.59823,2.77002 -1.55121,1.772812 -1.55121,4.709033 0,1.939014 0.3324,3.157822 0.3324,1.218809 1.66201,2.326817 1.27421,1.108007 3.04703,1.662011 1.77281,0.498604 5.54003,0.498604 2.99163,0 6.03865,-1.218809 3.10242,-1.218808 5.42924,-3.213222 z m 0,9.6396676 q -1.60662,1.2188086 -3.98883,2.9362206 -2.38222,1.7174121 -4.48743,2.71461917 -2.93623,1.32960936 -6.09405,1.93901365 -3.15782,0.66480468 -6.92505,0.66480468 -8.86406,0 -14.8473,-5.4846386 -5.98324,-5.4846386 -5.98324,-14.0162991 0,-6.814248 3.04702,-11.135478 3.04702,-4.32123 8.64246,-6.814248 5.54004,-2.493018 13.7393,-3.545625 8.19925,-1.052607 17.00792,-1.551211 v -0.332402 q 0,-5.152237 -4.21043,-7.09125 -4.21043,-1.994414 -12.40969,-1.994414 -4.93064,0 -10.52608,1.772812 -5.59543,1.717412 -8.03305,2.659219 h -1.82821 v -15.013506 q 3.15782,-0.831006 10.24907,-1.939013 7.14665,-1.163409 14.2933,-1.163409 17.00792,0 24.54237,5.263037 7.58985,5.207637 7.58985,16.398516 V 0 h -19.77793 z m 92.18623,-13.1298926 q 0,9.639668 -8.64246,15.5675097 -8.64246,5.8724414 -23.65597,5.8724414 -8.31006,0 -15.0689,-1.55121093 -6.75885,-1.55121097 -10.85848,-3.43482417 v -16.398516 h 1.82821 q 1.49581,1.052608 3.43483,2.326817 1.99441,1.218808 5.59544,2.659219 3.10242,1.274209 7.03585,2.216015 3.93342,0.886406 8.42086,0.886406 5.87244,0 8.69786,-1.274209 2.82542,-1.329609 2.82542,-3.878027 0,-2.271416 -1.66201,-3.268623 -1.66202,-1.052607 -6.31565,-1.994414 -2.21601,-0.498603 -6.03864,-1.052607 -3.76723,-0.609405 -6.86965,-1.44041 -8.47626,-2.216016 -12.57589,-6.869649 -4.09963,-4.709033 -4.09963,-11.689482 0,-8.974863 8.47626,-14.902705 8.53166,-5.983242 23.26817,-5.983242 6.98045,0 13.35149,1.44041 6.42645,1.38501 10.02747,2.991621 v 15.733711 h -1.71741 q -4.43203,-3.047022 -10.13827,-4.930635 -5.65084,-1.939014 -11.46788,-1.939014 -4.81984,0 -8.14386,1.32961 -3.26862,1.329609 -3.26862,3.767226 0,2.216016 1.49581,3.379424 1.49581,1.163408 7.03585,2.326816 3.04702,0.609405 6.53724,1.218809 3.54563,0.554004 7.09125,1.44041 7.86686,2.049815 11.63408,6.481846 3.76723,4.376631 3.76723,10.969277 z"
     id="text3"
     class="cls-3"
     style="font-weight:700;font-size:113.46px;font-family:DejaVuSansCondensed-Bold, 'DejaVu Sans';fill:#333233"
     transform="translate(467.64 427.76) scale(.97 1)"
     aria-label="Aberturas" />
  <path
     d="M 162.65514,0 H 119.68963 L 107.14298,-11.373223 Q 98.116612,-4.2423926 87.194707,-0.72210938 76.363067,2.7981738 64.267735,2.7981738 q -24.912774,0 -39.174434,-11.4634863 -14.171397,-11.5537505 -14.171397,-30.0578025 0,-7.672412 2.256592,-13.359024 2.256592,-5.686611 5.957403,-10.199795 3.520283,-4.42292 8.12373,-7.582148 4.603447,-3.159229 8.755576,-5.415821 -3.791074,-2.798173 -7.221094,-5.867138 -3.430019,-3.068965 -5.957402,-6.679512 -2.437119,-3.43002 -3.791074,-7.672412 -1.353955,-4.242393 -1.353955,-9.567945 0,-6.31846 2.70791,-11.82455 2.70791,-5.59634 8.12373,-10.01926 5.596348,-4.60345 14.98377,-7.40162 9.477686,-2.88844 22.475654,-2.88844 10.921905,0 19.496954,2.16633 8.575048,2.16632 14.442187,6.13793 5.506085,3.79107 8.394525,9.20689 2.9787,5.32556 2.9787,11.55375 0,4.15213 -1.26369,9.116632 -1.17343,4.964502 -4.42292,9.387422 -3.52029,4.69371 -9.297162,8.755576 -5.776875,4.061865 -15.796142,7.221094 l 27.620684,24.280927 v -29.064902 h 33.66835 v 10.019267 q 0,10.651114 -3.61055,20.39959 -3.61054,9.748477 -9.929,16.157198 l 34.39046,30.0578026 z M 77.626758,-104.16428 q 0,-4.69371 -1.444219,-7.40162 -1.444218,-2.79817 -3.520283,-4.24239 -2.166328,-1.44422 -4.513184,-1.80527 -2.346855,-0.36106 -3.791074,-0.36106 -1.534482,0 -3.520283,0.36106 -1.895537,0.36105 -4.242393,1.89553 -1.895537,1.26369 -3.339755,3.79108 -1.444219,2.43712 -1.444219,6.49898 0,5.32556 4.332656,10.29006 4.332656,4.964501 11.282959,10.199794 5.054766,-3.971601 7.582149,-8.755576 2.617646,-4.874238 2.617646,-10.470588 z m 13.629815,77.536497 -38.542588,-34.209932 q -1.805274,1.805273 -4.152129,6.498984 -2.346856,4.603448 -2.346856,10.290059 0,6.047666 2.346856,10.470586 2.346855,4.332656 5.776875,7.13083 3.610547,2.888438 8.033466,4.332656 4.42292,1.444219 8.665313,1.444219 6.13793,0 10.831641,-1.173428 4.783974,-1.263691 9.387422,-4.783974 z"
     id="text4"
     class="cls-1"
     style="font-weight:700;font-size:184.86px;font-family:DejaVuSansCondensed-Bold, 'DejaVu Sans';fill:#a8a8a8"
     transform="translate(675.3 182.56)"
     aria-label="&amp;" />
  <path
     class="cls-5"
     d="M549.04,181.58c-43.95-22.27-67.54-43.41-73.11-77.17-2.2-13.35-1.91-33.81,11.97-55.46,14.85-23.16,45.4-41.05,66.38-44.99,19.55-3.67,45.73-1.55,80.03,6.48,21.31,4.99,42.95,11.77,49.09,14.44l-31.81,73.17c.26.11.64.28,1.17.48-16.7-6.24-60.3-19.4-77.27-16.62-6.76.02-7.04,12.98-2.23,18.92,4.28,3.93-2.73,1.41,19.67,13.66,64.4,35.23,77.88,52.81,81.89,59.94,13.63,24.22,21.84,64.08-16.75,105.31-13.99,14.94-42.56,31.26-86.41,31.26-2.24,0-4.53-.04-6.87-.14-30.62-1.22-65.78-10.77-101.67-27.63l33.92-72.21c56.79,26.68,81.94,24.52,90.41,15.47,3.83-4.09,3.56-9.6.64-15.36-6.32-12.5-9.17-10.94-16.2-16.35M569.75,82.2h0Z"
     id="path4" />
  <path
     class="cls-4"
     d="M893.01,179.36c-43.95-22.27-67.54-43.41-73.11-77.17-2.2-13.35-1.91-33.81,11.97-55.46,14.85-23.16,45.4-41.05,66.38-44.99,19.55-3.67,45.73-1.55,80.03,6.48,21.31,4.99,42.95,11.77,49.09,14.44l-31.81,73.17c.26.11.64.28,1.17.48-16.7-6.24-60.3-19.4-77.27-16.62-6.76.02-7.04,12.98-2.23,18.92,4.28,3.93-2.73,1.41,19.67,13.66,64.4,35.23,77.88,52.81,81.89,59.94,13.63,24.22,21.84,64.08-16.75,105.31-13.99,14.94-42.56,31.26-86.41,31.26-2.24,0-4.53-.04-6.87-.14-30.62-1.22-65.78-10.77-101.67-27.63l33.92-72.21c56.79,26.68,81.94,24.52,90.41,15.47,3.83-4.09,3.56-9.6.64-15.36-6.32-12.5-9.17-10.94-16.2-16.35M913.72,79.99h0Z"
     id="path5" />
</svg>
